<svg xmlns="http://www.w3.org/2000/svg" viewBox="0 0 1024 1024" role="img" aria-labelledby="podsreunion-logo-title">
  <title id="podsreunion-logo-title">PodsReunion logo mark</title>
  <g transform="translate(0 1024) scale(0.1 -0.1)" fill="currentColor">
    <path d="M4785 9139c-1106-104-2083-666-2732-1570-578-806-826-1826-682-2808 103-708 404-1372 878-1936 229-273 595-592 883-771 73-45 335-194 342-194 0 0 1 577 1 1282 0 1315 1 1377 41 1693 83 667 330 1309 691 1789 425 568 825 674 1328 352 287-183 616-530 827-871 78-126 132-222 158-280l22-50 19 65c26 90 46 114 98 118 137 10 448-186 587-371 132-176 162-345 100-567-34-125-130-396-187-529-141-327-298-490-539-558-102-28-394-25-509 6-92 24-154 52-188 84-28 25-31 92-8 157 8 24 14 45 12 46-2 2-30-8-63-21-92-38-158-48-274-42-118 6-205 29-315 85-90 45-151 86-309 211-157 124-191 143-276 148-57 4-72 1-120-24-95-49-136-131-167-333-14-91-16-260-18-1295-1-654 0-1229 2-1277l4-88 38-10c61-16 328-58 445-69 158-16 463-13 634 4 872 91 1606 434 2249 1052 223 214 453 505 616 781 522 879 670 1947 411 2950-130 503-392 1026-720 1437-110 137-416 445-549 552-584 468-1215 741-1925 833-189 25-635 35-805 19z"/>
    <path d="M5543 6447c-31-29-37-41-41-89-4-48 0-64 24-110 49-91 321-344 419-389 106-49 221 12 219 116-2 77-79 178-272 352-133 120-189 153-260 153-45 0-57-4-89-33z"/>
  </g>
</svg>
